<svg width="17" height="16" viewBox="0 0 17 16" fill="none" xmlns="http://www.w3.org/2000/svg">
<path d="M1 1H2.56022C2.85796 1 3.14674 1.09775 3.37861 1.27701C3.61048 1.45627 3.77149 1.70626 3.83491 1.98546L4.25683 3.83098M4.25683 3.83098L4.97639 7.65109C5.13716 8.5183 5.61028 9.30372 6.3131 9.87014C7.01592 10.4366 7.90375 10.748 8.82148 10.75H10.5818C11.4699 10.7482 12.3309 10.4565 13.0234 9.92296C13.7159 9.38937 14.1987 8.64559 14.3925 7.81381L15.0585 4.98466C15.0914 4.84695 15.0916 4.70391 15.0591 4.56612C15.0266 4.42833 14.9622 4.29933 14.8707 4.18866C14.7792 4.078 14.6629 3.9885 14.5305 3.92679C14.3981 3.86509 14.2529 3.83276 14.1057 3.8322L4.25683 3.83098Z" stroke="#6E7191" stroke-width="2" stroke-linecap="round"/>
<path d="M5.87516 15C6.17432 15 6.41683 14.7574 6.41683 14.4583C6.41683 14.1591 6.17432 13.9166 5.87516 13.9166C5.57601 13.9166 5.3335 14.1591 5.3335 14.4583C5.3335 14.7574 5.57601 15 5.87516 15Z" stroke="#6E7191" stroke-width="2"/>
<path d="M13.4582 15C13.7573 15 13.9998 14.7574 13.9998 14.4583C13.9998 14.1591 13.7573 13.9166 13.4582 13.9166C13.159 13.9166 12.9165 14.1591 12.9165 14.4583C12.9165 14.7574 13.159 15 13.4582 15Z" stroke="#6E7191" stroke-width="2"/>
</svg>
