<svg width="18" height="16" viewBox="0 0 18 16" fill="none" xmlns="http://www.w3.org/2000/svg">
<path d="M1.8549 8.86798C1.70331 8.60399 1.62354 8.30489 1.62354 8.00048C1.62354 7.69606 1.70331 7.39696 1.8549 7.13298C3.4779 4.30598 6.0749 2.47498 8.9999 2.47498C11.9249 2.47498 14.5239 4.30598 16.1449 7.13298C16.2965 7.39696 16.3763 7.69606 16.3763 8.00048C16.3763 8.30489 16.2965 8.60399 16.1449 8.86798C14.5239 11.695 11.9239 13.526 8.9999 13.526C6.0759 13.526 3.4779 11.695 1.8549 8.86798Z" stroke="#6E7191" stroke-width="2"/>
<path d="M9 10C10.1046 10 11 9.10457 11 8C11 6.89543 10.1046 6 9 6C7.89543 6 7 6.89543 7 8C7 9.10457 7.89543 10 9 10Z" stroke="#6E7191" stroke-width="2"/>
</svg>
