<svg width="80" height="80" viewBox="0 0 80 80" fill="none" xmlns="http://www.w3.org/2000/svg">
<g clip-path="url(#clip0_4_28493)">
<path d="M56.0002 30.3L49.7002 24L50.9002 22.8L57.2002 29.1L56.0002 30.3ZM50.8002 32.5L47.4002 29.1L50.0002 26.5L53.4002 29.9L50.8002 32.5ZM52.6002 36.4C52.8002 36.6 53.0002 37 53.0002 37.3C53.0002 38 52.4002 38.6 51.7002 38.6C51.3002 38.6 51.0002 38.5 50.7002 38.2L49.6002 37.1L51.5002 35.2L52.6002 36.4ZM44.2002 42L38.0002 35.8L42.1002 31.7L48.4002 38L44.2002 42ZM20.5002 61.4C19.5002 61.3 18.7002 60.5 18.6002 59.5L25.2002 52.9L27.1002 54.8L20.5002 61.4ZM35.8002 38L37.0002 36.8L43.3002 43.1L42.0002 44.2L35.8002 38ZM33.6002 40.1L34.8002 38.9L41.1002 45.2L39.9002 46.4L33.6002 40.1ZM31.4002 42.3L32.6002 41.1L38.9002 47.4L37.7002 48.6L31.4002 42.3ZM26.2002 47.5L30.3002 43.4L36.6002 49.7L32.5002 53.8L26.2002 47.5ZM25.9002 51.6V49.3L30.7002 54.1H28.4002L25.9002 51.6ZM42.7002 27C43.1002 27 43.4002 27.1 43.6002 27.4L44.7002 28.5L42.8002 30.4L41.7002 29.3C41.5002 29.1 41.3002 28.7 41.3002 28.4C41.3002 27.6 41.9002 27 42.7002 27ZM45.7002 33.3L43.8002 31.4L45.7002 29.5L47.6002 31.4L45.7002 33.3ZM50.5002 34.3L48.6002 36.2L46.7002 34.3L48.6002 32.4L50.5002 34.3ZM58.9002 19.2L60.8002 21.1L56.0002 25.9L54.1002 24L58.9002 19.2ZM62.9002 21.1L58.9002 17.1L53.0002 23L50.8002 20.8L47.6002 24L49.1002 25.5L46.5002 28.1L44.7002 26.3C44.2002 25.8 43.5002 25.5 42.7002 25.5C41.2002 25.5 39.9002 26.8 39.9002 28.3C39.9002 29 40.2002 29.8 40.7002 30.3L41.0002 30.6L24.5002 47.2V51.6L17.2002 58.9V59.2C17.2002 61.2 18.8002 62.9 20.9002 62.9H21.2002L28.5002 55.6H32.9002L49.4002 39L49.7002 39.3C50.2002 39.8 50.9002 40.1 51.7002 40.1C53.2002 40.1 54.5002 38.8 54.5002 37.3C54.5002 36.6 54.2002 35.8 53.7002 35.3L51.9002 33.5L54.5002 30.9L56.0002 32.4L59.2002 29.2L57.0002 27L62.9002 21.1Z" fill="#4E4B66" stroke="#4E4B66" stroke-width="0.5102" stroke-miterlimit="10"/>
<path d="M56.0002 30.3L49.7002 24L50.9002 22.8L57.2002 29.1L56.0002 30.3ZM50.8002 32.5L47.4002 29.1L50.0002 26.5L53.4002 29.9L50.8002 32.5ZM52.6002 36.4C52.8002 36.6 53.0002 37 53.0002 37.3C53.0002 38 52.4002 38.6 51.7002 38.6C51.3002 38.6 51.0002 38.5 50.7002 38.2L49.6002 37.1L51.5002 35.2L52.6002 36.4ZM44.2002 42L38.0002 35.8L42.1002 31.7L48.4002 38L44.2002 42ZM20.5002 61.4C19.5002 61.3 18.7002 60.5 18.6002 59.5L25.2002 52.9L27.1002 54.8L20.5002 61.4ZM35.8002 38L37.0002 36.8L43.3002 43.1L42.0002 44.2L35.8002 38ZM33.6002 40.1L34.8002 38.9L41.1002 45.2L39.9002 46.4L33.6002 40.1ZM31.4002 42.3L32.6002 41.1L38.9002 47.4L37.7002 48.6L31.4002 42.3ZM26.2002 47.5L30.3002 43.4L36.6002 49.7L32.5002 53.8L26.2002 47.5ZM25.9002 51.6V49.3L30.7002 54.1H28.4002L25.9002 51.6ZM42.7002 27C43.1002 27 43.4002 27.1 43.6002 27.4L44.7002 28.5L42.8002 30.4L41.7002 29.3C41.5002 29.1 41.3002 28.7 41.3002 28.4C41.3002 27.6 41.9002 27 42.7002 27ZM45.7002 33.3L43.8002 31.4L45.7002 29.5L47.6002 31.4L45.7002 33.3ZM50.5002 34.3L48.6002 36.2L46.7002 34.3L48.6002 32.4L50.5002 34.3ZM58.9002 19.2L60.8002 21.1L56.0002 25.9L54.1002 24L58.9002 19.2ZM62.9002 21.1L58.9002 17.1L53.0002 23L50.8002 20.8L47.6002 24L49.1002 25.5L46.5002 28.1L44.7002 26.3C44.2002 25.8 43.5002 25.5 42.7002 25.5C41.2002 25.5 39.9002 26.8 39.9002 28.3C39.9002 29 40.2002 29.8 40.7002 30.3L41.0002 30.6L24.5002 47.2V51.6L17.2002 58.9V59.2C17.2002 61.2 18.8002 62.9 20.9002 62.9H21.2002L28.5002 55.6H32.9002L49.4002 39L49.7002 39.3C50.2002 39.8 50.9002 40.1 51.7002 40.1C53.2002 40.1 54.5002 38.8 54.5002 37.3C54.5002 36.6 54.2002 35.8 53.7002 35.3L51.9002 33.5L54.5002 30.9L56.0002 32.4L59.2002 29.2L57.0002 27L62.9002 21.1Z" fill="#4E4B66" stroke="#4E4B66" stroke-width="0.5102" stroke-miterlimit="10"/>
<circle cx="40" cy="40" r="38.5" stroke="#F56E1E" stroke-width="3"/>
</g>
<defs>
<clipPath id="clip0_4_28493">
<rect width="80" height="80" fill="white"/>
</clipPath>
</defs>
</svg>
