<svg width="80" height="80" viewBox="0 0 80 80" fill="none" xmlns="http://www.w3.org/2000/svg">
<g clip-path="url(#clip0_4_28517)">
<path d="M49.2002 29.2998V33.8998H50.8002C51.7002 33.8998 52.4002 34.5998 52.4002 35.3998C52.4002 36.1998 51.7002 36.9998 50.8002 36.9998H49.2002V42.9998H50.8002C51.7002 42.9998 52.4002 43.6998 52.4002 44.4998C52.4002 45.2998 51.7002 45.9998 50.8002 45.9998H49.2002V50.5998H54.0002C54.9002 50.5998 55.6002 49.8998 55.6002 49.0998V30.8998C55.6002 30.0998 54.9002 29.3998 54.0002 29.3998H49.2002V29.2998ZM31.6002 29.2998C30.7002 29.2998 30.0002 29.9998 30.0002 30.7998V49.0998C30.0002 49.8998 30.7002 50.5998 31.6002 50.5998H46.0002V29.2998H31.6002ZM23.6002 44.5998H26.8002V35.4998H23.6002V44.5998ZM60.4002 35.3998H58.8002V44.4998H60.4002V35.3998ZM58.8002 30.8998V32.3998H62.0002C62.9002 32.3998 63.6002 33.0998 63.6002 33.8998V38.4998H65.2002C66.1002 38.4998 66.8002 39.1998 66.8002 39.9998C66.8002 40.7998 66.1002 41.4998 65.2002 41.4998H63.6002V46.0998C63.6002 46.8998 62.9002 47.5998 62.0002 47.5998H58.8002V49.0998C58.8002 51.5998 56.6002 53.6998 54.0002 53.6998H31.6002C29.0002 53.6998 26.8002 51.6998 26.8002 49.0998V47.5998H22.0002C21.1002 47.5998 20.4002 46.8998 20.4002 46.0998V41.4998H10.8002C9.9002 41.4998 9.2002 40.7998 9.2002 39.9998C9.2002 39.1998 9.9002 38.4998 10.8002 38.4998H20.4002V33.8998C20.4002 33.0998 21.1002 32.3998 22.0002 32.3998H26.8002V30.8998C26.8002 28.3998 29.0002 26.2998 31.6002 26.2998H54.0002C56.7002 26.2998 58.8002 28.2998 58.8002 30.8998Z" fill="#4E4B66"/>
<circle cx="40" cy="40" r="38.5" stroke="#F56E1E" stroke-width="3"/>
</g>
<defs>
<clipPath id="clip0_4_28517">
<rect width="80" height="80" fill="white"/>
</clipPath>
</defs>
</svg>
