<svg width="80" height="80" viewBox="0 0 80 80" fill="none" xmlns="http://www.w3.org/2000/svg">
<g clip-path="url(#clip0_4_28475)">
<path d="M37.4001 36.8C36.3001 36.8 36.3001 38.4 37.4001 38.4H41.3001C42.4001 38.4 42.4001 36.8 41.3001 36.8H37.4001ZM17.7001 30.7C19.9001 35.4 24.6001 38.4 29.7001 38.4H31.1001C34.2001 38.4 36.6001 40.9 36.6001 44C36.6001 45.8 35.9001 46.9 34.8001 47.7C33.7001 48.5 32.3001 48.9 31.1001 48.8C29.6001 48.8 28.5001 48.1 27.6001 47C26.9001 46 26.4001 44.8 26.3001 43.7C27.3001 43.4 28.5001 43.2 29.6001 43.2H34.1001C35.2001 43.2 35.2001 41.6 34.1001 41.6H29.6001C25.1001 41.4 19.6001 44.7 17.6001 49.2V30.7H17.7001ZM16.9001 26.4C16.5001 26.4 16.1001 26.7 16.1001 27.2V52.8C16.1001 53.7 17.3001 53.9 17.6001 53.1L19.0001 50.1C20.2001 47.4 22.3001 45.4 24.9001 44.2C25.1001 45.5 25.6001 46.8 26.4001 47.9C27.5001 49.3 29.1001 50.3 31.1001 50.4C32.7001 50.5 34.4001 50 35.8001 49C37.2001 48 38.2001 46.3 38.2001 44C38.2001 40 35.0001 36.8 31.1001 36.8H29.7001C25.1001 36.8 20.9001 34.1 18.9001 29.8L17.5001 26.8C17.5001 26.6 17.2001 26.4 16.9001 26.4Z" fill="#4E4B66" stroke="#4E4B66" stroke-width="0.5696" stroke-miterlimit="10"/>
<path d="M37.4001 36.8C36.3001 36.8 36.3001 38.4 37.4001 38.4H41.3001C42.4001 38.4 42.4001 36.8 41.3001 36.8H37.4001ZM17.7001 30.7C19.9001 35.4 24.6001 38.4 29.7001 38.4H31.1001C34.2001 38.4 36.6001 40.9 36.6001 44C36.6001 45.8 35.9001 46.9 34.8001 47.7C33.7001 48.5 32.3001 48.9 31.1001 48.8C29.6001 48.8 28.5001 48.1 27.6001 47C26.9001 46 26.4001 44.8 26.3001 43.7C27.3001 43.4 28.5001 43.2 29.6001 43.2H34.1001C35.2001 43.2 35.2001 41.6 34.1001 41.6H29.6001C25.1001 41.4 19.6001 44.7 17.6001 49.2V30.7H17.7001ZM16.9001 26.4C16.5001 26.4 16.1001 26.7 16.1001 27.2V52.8C16.1001 53.7 17.3001 53.9 17.6001 53.1L19.0001 50.1C20.2001 47.4 22.3001 45.4 24.9001 44.2C25.1001 45.5 25.6001 46.8 26.4001 47.9C27.5001 49.3 29.1001 50.3 31.1001 50.4C32.7001 50.5 34.4001 50 35.8001 49C37.2001 48 38.2001 46.3 38.2001 44C38.2001 40 35.0001 36.8 31.1001 36.8H29.7001C25.1001 36.8 20.9001 34.1 18.9001 29.8L17.5001 26.8C17.5001 26.6 17.2001 26.4 16.9001 26.4Z" fill="#4E4B66" stroke="#4E4B66" stroke-width="0.5696" stroke-miterlimit="10"/>
<path d="M55.3001 30.5C54.1001 30.5 53.0001 30.8 52.0001 31.3L41.6001 36.9C41.2001 37.1 41.1001 37.6 41.3001 38C41.5001 38.4 42.0001 38.5 42.4001 38.3L52.8001 32.7C53.6001 32.3 54.5001 32 55.4001 32C57.7001 32 59.4001 32.9 60.6001 34.3C61.8001 35.7 62.4001 37.5 62.5001 39.2V40.8C62.5001 44.8 59.3001 47.9 55.4001 47.9C54.5001 47.9 53.6001 47.5 52.7001 47.2L42.3001 41.6C41.9001 41.4 41.4001 41.5 41.2001 41.9C41.0001 42.3 41.1001 42.8 41.5001 43L51.9001 48.6H52.0001C52.8001 48.9 53.9001 49.4 55.2001 49.4C60.0001 49.4 63.9001 45.5 63.9001 40.7V39.1C63.9001 37 63.1001 34.8 61.6001 33.2C60.2001 31.6 58.0001 30.5 55.3001 30.5Z" fill="#4E4B66" stroke="#4E4B66" stroke-width="0.5696" stroke-miterlimit="10"/>
<path d="M55.3001 30.5C54.1001 30.5 53.0001 30.8 52.0001 31.3L41.6001 36.9C41.2001 37.1 41.1001 37.6 41.3001 38C41.5001 38.4 42.0001 38.5 42.4001 38.3L52.8001 32.7C53.6001 32.3 54.5001 32 55.4001 32C57.7001 32 59.4001 32.9 60.6001 34.3C61.8001 35.7 62.4001 37.5 62.5001 39.2V40.8C62.5001 44.8 59.3001 47.9 55.4001 47.9C54.5001 47.9 53.6001 47.5 52.7001 47.2L42.3001 41.6C41.9001 41.4 41.4001 41.5 41.2001 41.9C41.0001 42.3 41.1001 42.8 41.5001 43L51.9001 48.6H52.0001C52.8001 48.9 53.9001 49.4 55.2001 49.4C60.0001 49.4 63.9001 45.5 63.9001 40.7V39.1C63.9001 37 63.1001 34.8 61.6001 33.2C60.2001 31.6 58.0001 30.5 55.3001 30.5Z" fill="#4E4B66" stroke="#4E4B66" stroke-width="0.5696" stroke-miterlimit="10"/>
<path d="M20.4003 32.9H19.3003V47H20.4003V32.9Z" fill="#4E4B66" stroke="#4E4B66" stroke-width="0.5696" stroke-miterlimit="10"/>
<path d="M20.4003 32.9H19.3003V47H20.4003V32.9Z" fill="#4E4B66" stroke="#4E4B66" stroke-width="0.5696" stroke-miterlimit="10"/>
<path d="M42.2001 37.8H41.1001V42.2001H42.2001V37.8Z" fill="#4E4B66" stroke="#4E4B66" stroke-width="0.5696" stroke-miterlimit="10"/>
<path d="M42.2001 37.8H41.1001V42.2001H42.2001V37.8Z" fill="#4E4B66" stroke="#4E4B66" stroke-width="0.5696" stroke-miterlimit="10"/>
<path d="M41.3999 41.9H37.8999V43H41.3999V41.9Z" fill="#4E4B66" stroke="#4E4B66" stroke-width="0.5696" stroke-miterlimit="10"/>
<path d="M41.3999 41.9H37.8999V43H41.3999V41.9Z" fill="#4E4B66" stroke="#4E4B66" stroke-width="0.5696" stroke-miterlimit="10"/>
<path d="M30.2001 42.1C29.5001 42.7 29.2001 43.6 29.5001 44.4C29.8001 45.2 30.6001 45.8 31.5001 45.8C32.4001 45.8 33.2001 45.2 33.5001 44.4C33.8001 43.6 33.5001 42.6 32.8001 42.1L32.0001 43.2C32.2001 43.4 32.3001 43.7 32.2001 44C32.1001 44.3 31.8001 44.5 31.5001 44.5C31.2001 44.5 30.9001 44.3 30.8001 44C30.7001 43.7 30.8001 43.4 31.0001 43.2L30.2001 42.1Z" fill="#4E4B66" stroke="#4E4B66" stroke-width="0.5696" stroke-miterlimit="10"/>
<path d="M30.2001 42.1C29.5001 42.7 29.2001 43.6 29.5001 44.4C29.8001 45.2 30.6001 45.8 31.5001 45.8C32.4001 45.8 33.2001 45.2 33.5001 44.4C33.8001 43.6 33.5001 42.6 32.8001 42.1L32.0001 43.2C32.2001 43.4 32.3001 43.7 32.2001 44C32.1001 44.3 31.8001 44.5 31.5001 44.5C31.2001 44.5 30.9001 44.3 30.8001 44C30.7001 43.7 30.8001 43.4 31.0001 43.2L30.2001 42.1Z" fill="#4E4B66" stroke="#4E4B66" stroke-width="0.5696" stroke-miterlimit="10"/>
<circle cx="40" cy="40" r="38.5" stroke="#F56E1E" stroke-width="3"/>
</g>
<defs>
<clipPath id="clip0_4_28475">
<rect width="80" height="80" fill="white"/>
</clipPath>
</defs>
</svg>
