<svg width="80" height="80" viewBox="0 0 80 80" fill="none" xmlns="http://www.w3.org/2000/svg">
<g clip-path="url(#clip0_4_28389)">
<path d="M39.4001 54.4C35.5001 58.2 29.3001 58.2 25.4001 54.4C21.5001 50.6 21.5001 44.5 25.4001 40.7" fill="#4E4B66"/>
<path d="M43.0999 55.4C43.7999 54.7 43.7999 53.5 43.0999 52.8L26.8999 36.9C26.1999 36.2 24.9999 36.2 24.2999 36.9C23.5999 37.6 23.5999 38.8 24.2999 39.5L40.4999 55.4C41.1999 56.2 42.3999 56.2 43.0999 55.4Z" fill="#4E4B66"/>
<path d="M40.6001 25.6C44.5001 21.8 50.7001 21.8 54.6001 25.6C58.5001 29.4 58.5001 35.5 54.6001 39.3" fill="#4E4B66"/>
<path d="M36.9 24.6C36.2 25.3 36.2 26.5 36.9 27.2L53.1 43.1C53.8 43.8 55 43.8 55.7 43.1C56.4 42.4 56.4 41.2 55.7 40.5L39.5 24.6C38.8 23.8 37.6 23.8 36.9 24.6Z" fill="#4E4B66"/>
<path d="M35.6001 34.6C36.3001 33.9 37.5001 33.9 38.3001 34.6C39.0001 35.3 39.0001 36.5 38.3001 37.2L33.8001 41.6L31.1001 39L35.6001 34.6Z" fill="#4E4B66"/>
<path d="M42.9003 41.7C43.6003 41 44.8003 41 45.6003 41.7C46.3003 42.4 46.3003 43.6 45.6003 44.3L41.0003 48.7L38.3003 46.1L42.9003 41.7Z" fill="#4E4B66"/>
<path d="M58.8003 18.9C59.5003 18.2 60.7003 18.2 61.5003 18.9C62.2003 19.6 62.2003 20.8 61.5003 21.5L54.9003 28L52.3003 25.4L58.8003 18.9Z" fill="#4E4B66"/>
<path d="M21.2001 61.1C20.5001 61.8 19.3001 61.8 18.5001 61.1C17.7001 60.4 17.8001 59.2 18.5001 58.5L25.1001 52L27.7001 54.6L21.2001 61.1Z" fill="#4E4B66"/>
<circle cx="40" cy="40" r="38.5" stroke="#F56E1E" stroke-width="3"/>
</g>
<defs>
<clipPath id="clip0_4_28389">
<rect width="80" height="80" fill="white"/>
</clipPath>
</defs>
</svg>
