<svg width="80" height="80" viewBox="0 0 80 80" fill="none" xmlns="http://www.w3.org/2000/svg">
<g clip-path="url(#clip0_4_28490)">
<path d="M38.1999 58.1H41.0999V58.6C41.0999 58.8 41.0999 58.7 40.9999 58.8C40.8999 58.9 40.4999 59.1 39.6999 59.1C38.8999 59.1 38.4999 58.9 38.3999 58.8C38.2999 58.7 38.2999 58.8 38.2999 58.6L38.1999 58.1ZM36.2999 54.2H42.9999V55.2H42.4999H36.5999H36.2999V54.2ZM36.2999 50.3H42.9999V51.3H36.2999V50.3ZM54.8999 38.5C54.0999 38.5 53.4999 39.2 53.4999 40.1C53.4999 40.9 54.1999 41.5 54.9999 41.5H59.7999C60.5999 41.5 61.2999 40.9 61.2999 40.1C61.2999 39.3 60.6999 38.6 59.8999 38.6H55.0999C54.9999 38.5 54.8999 38.5 54.8999 38.5ZM19.2999 38.6C18.4999 38.6 17.8999 39.3 17.8999 40.2C17.8999 41 18.5999 41.6 19.3999 41.6H24.1999C24.9999 41.6 25.5999 41 25.6999 40.2C25.6999 39.4 25.0999 38.7 24.2999 38.7H19.4999C19.3999 38.6 19.2999 38.6 19.2999 38.6ZM39.5999 30.7C44.6999 30.7 48.6999 34.8 48.7999 39.5C48.7999 43.1 46.0999 45.9 44.0999 47.3H35.2999C33.1999 45.9 30.4999 43.1 30.4999 39.5C30.4999 34.8 34.4999 30.8 39.5999 30.7ZM39.5999 27.8C32.9999 27.8 27.5999 33.1 27.5999 39.5C27.5999 44.3 30.7999 47.8 33.3999 49.6V56.6C33.3999 57.4 33.9999 58.1 34.7999 58.1H35.2999V58.6C35.2999 59.5 35.7999 60.5 36.5999 61.1C37.3999 61.7 38.4999 62 39.6999 62C40.8999 62 41.9999 61.7 42.7999 61.1C43.5999 60.5 44.0999 59.5 44.0999 58.5V58H44.5999C45.3999 58 45.9999 57.3 45.9999 56.5V49.5C48.5999 47.7 51.7999 44.2 51.7999 39.4C51.5999 33.1 46.1999 27.8 39.5999 27.8ZM54.2999 23.4C53.9999 23.4 53.6999 23.6 53.3999 23.8L49.5999 27.7C48.9999 28.2 48.9999 29.2 49.4999 29.8C49.9999 30.4 50.8999 30.5 51.4999 29.9L51.5999 29.8L55.3999 25.9C55.9999 25.3 55.9999 24.4 55.3999 23.8C55.1999 23.5 54.7999 23.3 54.2999 23.4ZM24.4999 23.4C23.6999 23.5 23.0999 24.2 23.1999 25C23.1999 25.3 23.3999 25.7 23.5999 25.9L27.4999 29.8C27.9999 30.4 28.8999 30.5 29.4999 29.9C30.0999 29.4 30.1999 28.4 29.5999 27.8L29.4999 27.7L25.5999 23.8C25.3999 23.6 24.8999 23.4 24.4999 23.4ZM39.5999 18C38.7999 18 38.1999 18.7 38.1999 19.5V24.4C38.1999 25.2 38.7999 25.9 39.5999 25.9C40.3999 25.9 40.9999 25.3 41.0999 24.5V19.6C40.9999 18.7 40.3999 18 39.5999 18Z" fill="#4E4B66"/>
<circle cx="40" cy="40" r="38.5" stroke="#F56E1E" stroke-width="3"/>
</g>
<defs>
<clipPath id="clip0_4_28490">
<rect width="80" height="80" fill="white"/>
</clipPath>
</defs>
</svg>
