<svg width="80" height="80" viewBox="0 0 80 80" fill="none" xmlns="http://www.w3.org/2000/svg">
<g clip-path="url(#clip0_4_28504)">
<path d="M21.6002 34.4L22.1002 31H57.9002L58.4002 34.4H21.6002ZM53.2002 37.1V35.8H54.5002V37.1C54.5002 37.5 54.2002 37.8 53.8002 37.8C53.5002 37.8 53.2002 37.5 53.2002 37.1ZM25.5002 37.1V35.8H26.8002V37.1C26.8002 37.5 26.5002 37.8 26.1002 37.8C25.8002 37.8 25.5002 37.5 25.5002 37.1ZM57.2002 45.9H22.9002V35.8H24.2002V37.1C24.2002 38.2 25.1002 39.1 26.2002 39.1C27.3002 39.1 28.2002 38.2 28.2002 37.1V35.8H51.9002V37.1C51.9002 38.2 52.8002 39.1 53.9002 39.1C55.0002 39.1 55.9002 38.2 55.9002 37.1V35.8H57.2002V45.9ZM57.2002 48.6H22.9002V47.3H57.2002V48.6ZM52.5002 58.7H49.9002V49.9H52.5002V58.7ZM41.3002 58.7H38.7002V49.9H41.3002V58.7ZM30.1002 58.7H27.5002V49.9H30.1002V58.7ZM26.5002 24.3C33.9002 24.3 44.8002 23.2 50.4002 21.4C52.9002 23.4 54.4002 26.5 54.5002 29.7H24.8002C24.9002 27.8 25.5002 25.9 26.5002 24.3ZM59.1002 30.3C59.1002 30 58.8002 29.7 58.4002 29.7H55.8002C55.6002 25.9 53.8002 22.4 50.9002 20.1C50.7002 20 50.5002 19.9 50.3002 20C44.9002 21.8 34.0002 22.9 26.5002 22.9H26.2002C26.0002 22.9 25.8002 23 25.7002 23.2C24.4002 25.1 23.7002 27.3 23.6002 29.6H21.6002C21.3002 29.6 21.0002 29.8 20.9002 30.2L20.2002 35C20.2002 35.2 20.2002 35.4 20.3002 35.5C20.4002 35.6 20.6002 35.7 20.8002 35.7H21.5002V49.2C21.5002 49.6 21.8002 49.9 22.2002 49.9H26.2002V59.3C26.2002 59.7 26.5002 60 26.9002 60H30.9002C31.3002 60 31.6002 59.7 31.6002 59.3V49.9H37.5002V59.3C37.5002 59.7 37.8002 60 38.2002 60H42.2002C42.6002 60 42.9002 59.7 42.9002 59.3V49.9H48.8002V59.3C48.8002 59.7 49.1002 60 49.5002 60H53.5002C53.9002 60 54.2002 59.7 54.2002 59.3V49.9H58.2002C58.6002 49.9 58.9002 49.6 58.9002 49.2V35.7H59.6002C59.8002 35.7 60.0002 35.6 60.1002 35.5C60.2002 35.4 60.3002 35.2 60.3002 35L59.1002 30.3Z" fill="#4E4B66" stroke="#4E4B66" stroke-width="0.6" stroke-miterlimit="10"/>
<path d="M21.6002 34.4L22.1002 31H57.9002L58.4002 34.4H21.6002ZM53.2002 37.1V35.8H54.5002V37.1C54.5002 37.5 54.2002 37.8 53.8002 37.8C53.5002 37.8 53.2002 37.5 53.2002 37.1ZM25.5002 37.1V35.8H26.8002V37.1C26.8002 37.5 26.5002 37.8 26.1002 37.8C25.8002 37.8 25.5002 37.5 25.5002 37.1ZM57.2002 45.9H22.9002V35.8H24.2002V37.1C24.2002 38.2 25.1002 39.1 26.2002 39.1C27.3002 39.1 28.2002 38.2 28.2002 37.1V35.8H51.9002V37.1C51.9002 38.2 52.8002 39.1 53.9002 39.1C55.0002 39.1 55.9002 38.2 55.9002 37.1V35.8H57.2002V45.9ZM57.2002 48.6H22.9002V47.3H57.2002V48.6ZM52.5002 58.7H49.9002V49.9H52.5002V58.7ZM41.3002 58.7H38.7002V49.9H41.3002V58.7ZM30.1002 58.7H27.5002V49.9H30.1002V58.7ZM26.5002 24.3C33.9002 24.3 44.8002 23.2 50.4002 21.4C52.9002 23.4 54.4002 26.5 54.5002 29.7H24.8002C24.9002 27.8 25.5002 25.9 26.5002 24.3ZM59.1002 30.3C59.1002 30 58.8002 29.7 58.4002 29.7H55.8002C55.6002 25.9 53.8002 22.4 50.9002 20.1C50.7002 20 50.5002 19.9 50.3002 20C44.9002 21.8 34.0002 22.9 26.5002 22.9H26.2002C26.0002 22.9 25.8002 23 25.7002 23.2C24.4002 25.1 23.7002 27.3 23.6002 29.6H21.6002C21.3002 29.6 21.0002 29.8 20.9002 30.2L20.2002 35C20.2002 35.2 20.2002 35.4 20.3002 35.5C20.4002 35.6 20.6002 35.7 20.8002 35.7H21.5002V49.2C21.5002 49.6 21.8002 49.9 22.2002 49.9H26.2002V59.3C26.2002 59.7 26.5002 60 26.9002 60H30.9002C31.3002 60 31.6002 59.7 31.6002 59.3V49.9H37.5002V59.3C37.5002 59.7 37.8002 60 38.2002 60H42.2002C42.6002 60 42.9002 59.7 42.9002 59.3V49.9H48.8002V59.3C48.8002 59.7 49.1002 60 49.5002 60H53.5002C53.9002 60 54.2002 59.7 54.2002 59.3V49.9H58.2002C58.6002 49.9 58.9002 49.6 58.9002 49.2V35.7H59.6002C59.8002 35.7 60.0002 35.6 60.1002 35.5C60.2002 35.4 60.3002 35.2 60.3002 35L59.1002 30.3Z" fill="#4E4B66" stroke="#4E4B66" stroke-width="0.6" stroke-miterlimit="10"/>
<path d="M48.0003 43.3001H32.1003C31.0003 43.3001 30.1003 42.4001 30.1003 41.2001C30.1003 40.0001 31.0003 39.1001 32.1003 39.1001L48.0003 39.0001C49.1003 39.0001 50.0003 39.9001 50.0003 41.1001C50.0003 42.3001 49.1003 43.3001 48.0003 43.3001ZM48.0003 37.6001H32.1003C30.3003 37.6001 28.8003 39.2001 28.8003 41.1001C28.8003 43.0001 30.3003 44.6001 32.1003 44.6001H48.0003C49.8003 44.6001 51.3003 43.0001 51.3003 41.1001C51.3003 39.2001 49.8003 37.6001 48.0003 37.6001Z" fill="#4E4B66" stroke="#4E4B66" stroke-width="0.6" stroke-miterlimit="10"/>
<path d="M48.0003 43.3001H32.1003C31.0003 43.3001 30.1003 42.4001 30.1003 41.2001C30.1003 40.0001 31.0003 39.1001 32.1003 39.1001L48.0003 39.0001C49.1003 39.0001 50.0003 39.9001 50.0003 41.1001C50.0003 42.3001 49.1003 43.3001 48.0003 43.3001ZM48.0003 37.6001H32.1003C30.3003 37.6001 28.8003 39.2001 28.8003 41.1001C28.8003 43.0001 30.3003 44.6001 32.1003 44.6001H48.0003C49.8003 44.6001 51.3003 43.0001 51.3003 41.1001C51.3003 39.2001 49.8003 37.6001 48.0003 37.6001Z" fill="#4E4B66" stroke="#4E4B66" stroke-width="0.6" stroke-miterlimit="10"/>
<circle cx="40" cy="40" r="38.5" stroke="#F56E1E" stroke-width="3"/>
</g>
<defs>
<clipPath id="clip0_4_28504">
<rect width="80" height="80" fill="white"/>
</clipPath>
</defs>
</svg>
