<svg width="40" height="21" viewBox="0 0 40 21" fill="none" xmlns="http://www.w3.org/2000/svg">
<g opacity="0.6" clip-path="url(#clip0_2_213)">
<path fill-rule="evenodd" clip-rule="evenodd" d="M19.3996 20.4249L25.1032 16.2223V20.4249H29.5685V5.00281H25.0281L19.2871 9.24296V5.00281H14.7842V20.4249H19.3996ZM20.6379 17.8358L16.6979 12.5075L18.424 11.2317C19.0619 10.7439 19.5122 10.4437 19.7373 10.3687C20.1126 10.2186 20.4878 10.181 20.9006 10.2936C21.3133 10.4062 21.6886 10.7064 21.9887 11.1191C22.2514 11.4568 22.364 11.757 22.439 12.0947C22.4765 12.3949 22.439 12.6951 22.364 12.9578C22.2889 13.2204 22.1388 13.4081 21.9887 13.5957C21.7636 13.8583 21.4259 14.1585 20.9381 14.4962L20.2251 15.0216L21.7261 17.0478L20.6379 17.8358ZM18.424 12.6201L19.5497 14.121L20.1501 13.7082C20.5629 13.3705 20.8255 13.1454 20.9381 12.9953C21.0507 12.8077 21.0882 12.6576 21.0882 12.47C21.0882 12.2824 21.0131 12.1323 20.9006 11.9446C20.7505 11.757 20.5629 11.6445 20.3752 11.6069C20.1501 11.5694 19.9625 11.6069 19.7373 11.682C19.6248 11.757 19.3246 11.9446 18.9493 12.2448L18.424 12.6201ZM20.7505 9.50562L21.9512 8.60506L25.2533 10.4437L24.2777 6.87898L25.4034 6.05346L26.6041 11.4568C26.7167 12.0197 26.7917 12.5075 26.7542 12.8827C26.7167 13.258 26.5291 13.5957 26.2289 13.8208C25.8912 14.046 25.6285 14.2336 25.4034 14.3086L24.8405 13.5206C24.9906 13.4081 25.1407 13.2955 25.2533 13.2204C25.5159 13.0328 25.6285 12.8452 25.666 12.6951C25.7411 12.5075 25.666 12.2448 25.5535 11.8696L20.7505 9.50562Z" fill="#FEFEFE"/>
<path d="M25.0281 0.575073H40V4.36494H34.8968V20.425H30.1313V4.36494H25.0281V0.575073Z" fill="#FEFEFE"/>
<path d="M4.76548 17.123H7.16698C8.66792 17.123 9.41839 16.5976 9.41839 15.5094C9.41839 14.5714 8.66792 14.0836 7.16698 14.0836H4.76548V17.123ZM4.76548 10.9691H7.27955C9.606 10.9691 11.3696 11.3819 12.4578 12.2074C13.621 13.0329 14.1839 14.3087 14.1839 16.0348C14.1839 17.4607 13.6585 18.5488 12.6079 19.2993C11.5947 20.0498 10.0938 20.425 8.18011 20.425H0V5.04041H14.1088V8.15485H4.76548V10.9691Z" fill="#FEFEFE"/>
<path fill-rule="evenodd" clip-rule="evenodd" d="M24.6529 0.575073H12.4578V4.36494H24.6529V0.575073Z" fill="#FEFEFE"/>
<path fill-rule="evenodd" clip-rule="evenodd" d="M11.8199 0.612549H5.74109V4.40242H11.8199V0.612549Z" fill="#FEFEFE"/>
<path fill-rule="evenodd" clip-rule="evenodd" d="M5.25328 0.575073H2.17636V4.36494H5.25328V0.575073Z" fill="#FEFEFE"/>
<path fill-rule="evenodd" clip-rule="evenodd" d="M1.57598 0.575073H0.0375214V4.36494H1.57598V0.575073Z" fill="#FEFEFE"/>
</g>
<defs>
<clipPath id="clip0_2_213">
<rect width="40" height="20" fill="white" transform="translate(0 0.5)"/>
</clipPath>
</defs>
</svg>
