<svg width="81" height="80" viewBox="0 0 81 80" fill="none" xmlns="http://www.w3.org/2000/svg">
<g clip-path="url(#clip0_2_172)">
<path d="M30.5 52.7V60.9M39.6 19.1V30.9M57.8 26.3H56M57.8 22.7H56M30.5 22.7V30.9M22.3 40H28.7M22.3 43.6H28.7M63.3 38.2H66.9V32.7H63.3V38.2ZM30.5 59.1H34.1V55.5H30.5V59.1ZM52.4 27.3H56V21.8H52.4V27.3ZM51.4 28.2H39.5V20.9H51.4C51.9 20.9 52.3 21.3 52.3 21.8V27.3C52.4 27.8 51.9 28.2 51.4 28.2ZM30.5 28.2H36V24.6H30.5V28.2ZM17.7 44.6H22.3V39.1H17.7V44.6V44.6ZM22.3 47.3H28.7V36.4H22.3V47.3V47.3ZM20.4 32.7L14 37.3V41.9V46.5L20.4 51.1H28.6V42V32.9L20.4 32.7ZM37.8 52.7H63.3V30.8H37.8V52.7ZM28.6 52.7H37.7V30.8H28.6V52.7Z" stroke="#4E4B66" stroke-width="2.3" stroke-linecap="round" stroke-linejoin="round"/>
<circle cx="40.5" cy="40" r="38.5" stroke="#F56E1E" stroke-width="3"/>
</g>
<defs>
<clipPath id="clip0_2_172">
<rect width="80" height="80" fill="white" transform="translate(0.5)"/>
</clipPath>
</defs>
</svg>
