<svg width="80" height="80" viewBox="0 0 80 80" fill="none" xmlns="http://www.w3.org/2000/svg">
<g clip-path="url(#clip0_2_169)">
<path d="M27.1 33.1C26.5 33.1 25.9 32.6 25.9 32C25.9 31.4 26.4 30.9 27.1 30.9H30.6C31.2 30.9 31.8 31.4 31.8 32C31.8 32.6 31.3 33.1 30.6 33.1H27.1ZM28.3 28.5C27.6 28.5 27.1 28 27.1 27.4C27.1 26.8 27.6 26.3 28.3 26.3H30.6C31.2 26.3 31.8 26.8 31.8 27.4C31.8 28 31.3 28.5 30.6 28.5H28.3ZM27.1 23.9C26.5 23.9 25.9 23.4 25.9 22.8C25.9 22.2 26.4 21.6 27.1 21.6H30.6C31.2 21.6 31.8 22.1 31.8 22.8C31.8 23.4 31.3 23.9 30.6 23.9H27.1ZM40 56.1C41.3 56.1 42.3 55.1 42.3 53.8C42.3 52.5 41.2 51.5 40 51.5C38.7 51.5 37.7 52.5 37.7 53.8C37.7 55.1 38.7 56.1 40 56.1ZM38.8 49.3V42.3C38.8 41.7 39.3 41.2 40 41.2C40.6 41.2 41.2 41.7 41.2 42.3V49.3C43.2 49.8 44.7 51.6 44.7 53.8C44.7 56.3 42.6 58.4 40 58.4C37.4 58.4 35.3 56.3 35.3 53.8C35.3 51.7 36.8 49.9 38.8 49.3ZM36.5 35.4C36.5 36 36 36.5 35.3 36.5C34.6 36.5 34.1 36 34.1 35.4V22.8C34.1 19.6 36.7 17.1 40 17.1C43.2 17.1 45.9 19.7 45.9 22.8V26.2C45.9 26.8 45.4 27.3 44.7 27.3C44 27.3 43.5 26.8 43.5 26.2V22.8C43.5 20.9 41.9 19.3 40 19.3C38.1 19.3 36.5 20.8 36.5 22.8V35.4V35.4ZM49.4 53.8C49.4 58.9 45.2 63 40 63C34.8 63 30.6 58.9 30.6 53.8C30.6 50.8 32.1 48 34.6 46.3C35.1 45.9 35.9 46.1 36.2 46.6C36.6 47.1 36.4 47.8 35.9 48.2C34 49.5 32.9 51.6 32.9 53.9C32.9 57.7 36.1 60.8 39.9 60.8C43.8 60.8 46.9 57.7 46.9 53.9C46.9 51.6 45.8 49.5 43.9 48.2C43.6 48 43.4 47.6 43.4 47.3V37.8C43.4 37.2 43.9 36.6 44.6 36.6C45.2 36.6 45.8 37.1 45.8 37.8V46.7C48.1 48.3 49.4 51 49.4 53.8ZM30.3 47.7C30 47.9 29.7 48 29.4 48H22.4C21.8 48 21.2 47.5 21.2 46.9C21.2 46.3 21.7 45.8 22.4 45.8H29L49.8 25.4C50 25.2 50.3 25.1 50.6 25.1H57.6C58.2 25.1 58.8 25.6 58.8 26.2C58.8 26.8 58.3 27.3 57.6 27.3H51L30.3 47.7Z" fill="#4E4B66"/>
<circle cx="40" cy="40" r="38.5" stroke="#DE5703" stroke-width="3"/>
</g>
<defs>
<clipPath id="clip0_2_169">
<rect width="80" height="80" fill="white"/>
</clipPath>
</defs>
</svg>
