<svg width="20" height="21" viewBox="0 0 20 21" fill="none" xmlns="http://www.w3.org/2000/svg">
<path d="M9.14625 17.5325C10.706 17.5325 12.2307 17.07 13.5276 16.2034C14.8245 15.3369 15.8353 14.1052 16.4322 12.6642C17.0291 11.2232 17.1853 9.63751 16.881 8.10773C16.5767 6.57795 15.8256 5.17275 14.7227 4.06984C13.6198 2.96693 12.2146 2.21584 10.6848 1.91155C9.155 1.60725 7.56934 1.76343 6.12832 2.36032C4.68729 2.95721 3.45563 3.96801 2.58907 5.2649C1.72252 6.56178 1.26 8.08651 1.26 9.64626C1.26 11.7378 2.09087 13.7437 3.56983 15.2227C5.04879 16.7016 7.05469 17.5325 9.14625 17.5325V17.5325Z" stroke="#A0A3BC" stroke-width="2" stroke-linecap="round" stroke-linejoin="round"/>
<path d="M18.7863 19.2862L14.8138 15.3137" stroke="#A0A3BC" stroke-width="2" stroke-linecap="round" stroke-linejoin="round"/>
</svg>
