<svg width="80" height="80" viewBox="0 0 80 80" fill="none" xmlns="http://www.w3.org/2000/svg">
<g clip-path="url(#clip0_4_28380)">
<path d="M58.4001 46H56.7001V30.6H58.4001V46ZM50.0001 44.3V32.3H55.0001V44.3H50.0001ZM48.4001 59.7C48.4001 60.2 48.0001 60.6 47.6001 60.6H42.6001C42.1001 60.6 41.8001 60.2 41.8001 59.7V58C41.8001 57.6 41.5001 57.2 41.1001 57.2L34.6001 56.1C33.0001 55.8 31.8001 54.4 31.8001 52.7V47.8H48.5001V59.7H48.4001ZM45.9001 64H44.2001V62.3H45.9001V64ZM25.0001 30.6H33.4001V40.1C31.5001 40.5 30.1001 42.3 30.1001 44.3V46H25.1001V30.6H25.0001ZM21.6001 29.8H23.3001V46.9H21.6001V29.8ZM45.0001 21.2V22.9C44.1001 22.9 43.3001 23.7 43.3001 24.6V27.2C43.3001 28.1 44.0001 28.9 45.0001 28.9V40H40.8001V37.4C40.8001 36 39.7001 34.8 38.3001 34.8H35.0001V21.2H45.0001ZM33.3001 16.1H46.7001V19.5H44.2001V17.8H42.5001V19.5H40.8001V17.8H39.1001V19.5H37.4001V17.8H35.7001V19.5H33.2001L33.3001 16.1ZM50.0001 27.2H45.0001V24.6H50.0001V27.2ZM48.4001 31.5V40.9C47.9001 40.5 47.3001 40.2 46.7001 40.1V28.9H48.4001V31.5ZM34.1001 41.8H45.8001C47.2001 41.8 48.3001 42.9 48.3001 44.4V46H31.6001V44.3C31.6001 42.9 32.8001 41.8 34.1001 41.8ZM39.2001 40.1H35.0001V36.7H38.3001C38.8001 36.7 39.1001 37.1 39.1001 37.6V40.1H39.2001ZM59.2001 28.9H55.9001C55.4001 28.9 55.1001 29.3 55.1001 29.8V30.7H50.1001V29C51.0001 29 51.8001 28.2 51.8001 27.3V24.7C51.8001 23.8 51.1001 23 50.1001 23H46.8001V21.3C47.7001 21.3 48.5001 20.5 48.5001 19.6V16.2C48.5001 15.3 47.8001 14.5 46.8001 14.5H33.3001C32.4001 14.5 31.6001 15.3 31.6001 16.2V19.6C31.6001 20.5 32.3001 21.3 33.3001 21.3V29H25.0001C25.0001 28.5 24.6001 28.1 24.2001 28.1H20.9001C20.4001 28.1 20.1001 28.5 20.1001 29V47.8C20.1001 48.3 20.5001 48.7 20.9001 48.7H24.2001C24.7001 48.7 25.0001 48.3 25.0001 47.8H30.0001V52.7C30.0001 55.2 31.8001 57.4 34.2001 57.8L40.0001 58.8V59.8C40.0001 61.2 41.1001 62.4 42.5001 62.4V64C42.5001 64.9 43.2001 65.7 44.2001 65.7H45.9001C46.8001 65.7 47.6001 64.9 47.6001 64V62.3C49.0001 62.3 50.1001 61.2 50.1001 59.7V46H55.1001V46.9C55.1001 47.4 55.5001 47.8 55.9001 47.8H59.2001C59.7001 47.8 60.0001 47.4 60.0001 46.9V29.8C60.1001 29.3 59.7001 28.9 59.2001 28.9Z" fill="#4E4B66"/>
<path d="M58.4001 46H56.7001V30.6H58.4001V46ZM50.0001 44.3V32.3H55.0001V44.3H50.0001ZM48.4001 59.7C48.4001 60.2 48.0001 60.6 47.6001 60.6H42.6001C42.1001 60.6 41.8001 60.2 41.8001 59.7V58C41.8001 57.6 41.5001 57.2 41.1001 57.2L34.6001 56.1C33.0001 55.8 31.8001 54.4 31.8001 52.7V47.8H48.5001V59.7H48.4001ZM45.9001 64H44.2001V62.3H45.9001V64ZM25.0001 30.6H33.4001V40.1C31.5001 40.5 30.1001 42.3 30.1001 44.3V46H25.1001V30.6H25.0001ZM21.6001 29.8H23.3001V46.9H21.6001V29.8ZM45.0001 21.2V22.9C44.1001 22.9 43.3001 23.7 43.3001 24.6V27.2C43.3001 28.1 44.0001 28.9 45.0001 28.9V40H40.8001V37.4C40.8001 36 39.7001 34.8 38.3001 34.8H35.0001V21.2H45.0001ZM33.3001 16.1H46.7001V19.5H44.2001V17.8H42.5001V19.5H40.8001V17.8H39.1001V19.5H37.4001V17.8H35.7001V19.5H33.2001L33.3001 16.1ZM50.0001 27.2H45.0001V24.6H50.0001V27.2ZM48.4001 31.5V40.9C47.9001 40.5 47.3001 40.2 46.7001 40.1V28.9H48.4001V31.5ZM34.1001 41.8H45.8001C47.2001 41.8 48.3001 42.9 48.3001 44.4V46H31.6001V44.3C31.6001 42.9 32.8001 41.8 34.1001 41.8ZM39.2001 40.1H35.0001V36.7H38.3001C38.8001 36.7 39.1001 37.1 39.1001 37.6V40.1H39.2001ZM59.2001 28.9H55.9001C55.4001 28.9 55.1001 29.3 55.1001 29.8V30.7H50.1001V29C51.0001 29 51.8001 28.2 51.8001 27.3V24.7C51.8001 23.8 51.1001 23 50.1001 23H46.8001V21.3C47.7001 21.3 48.5001 20.5 48.5001 19.6V16.2C48.5001 15.3 47.8001 14.5 46.8001 14.5H33.3001C32.4001 14.5 31.6001 15.3 31.6001 16.2V19.6C31.6001 20.5 32.3001 21.3 33.3001 21.3V29H25.0001C25.0001 28.5 24.6001 28.1 24.2001 28.1H20.9001C20.4001 28.1 20.1001 28.5 20.1001 29V47.8C20.1001 48.3 20.5001 48.7 20.9001 48.7H24.2001C24.7001 48.7 25.0001 48.3 25.0001 47.8H30.0001V52.7C30.0001 55.2 31.8001 57.4 34.2001 57.8L40.0001 58.8V59.8C40.0001 61.2 41.1001 62.4 42.5001 62.4V64C42.5001 64.9 43.2001 65.7 44.2001 65.7H45.9001C46.8001 65.7 47.6001 64.9 47.6001 64V62.3C49.0001 62.3 50.1001 61.2 50.1001 59.7V46H55.1001V46.9C55.1001 47.4 55.5001 47.8 55.9001 47.8H59.2001C59.7001 47.8 60.0001 47.4 60.0001 46.9V29.8C60.1001 29.3 59.7001 28.9 59.2001 28.9Z" fill="#4E4B66" stroke="#4E4B66" stroke-width="0.7055" stroke-miterlimit="10"/>
<path d="M40.0999 29.8C40.4999 29.8 40.7999 30.1 40.7999 30.5C40.7999 30.9 40.4999 31.2001 40.0999 31.2001C39.6999 31.2001 39.3999 30.9 39.3999 30.5C39.2999 30.1 39.6999 29.8 40.0999 29.8ZM40.0999 32.7001C41.2999 32.7001 42.2999 31.7 42.2999 30.5C42.2999 29.3 41.2999 28.3 40.0999 28.3C38.8999 28.3 37.8999 29.3 37.8999 30.5C37.8999 31.1 38.0999 31.6 38.4999 32C38.8999 32.5 39.4999 32.7001 40.0999 32.7001Z" fill="#4E4B66"/>
<path d="M40.0999 29.8C40.4999 29.8 40.7999 30.1 40.7999 30.5C40.7999 30.9 40.4999 31.2001 40.0999 31.2001C39.6999 31.2001 39.3999 30.9 39.3999 30.5C39.2999 30.1 39.6999 29.8 40.0999 29.8ZM40.0999 32.7001C41.2999 32.7001 42.2999 31.7 42.2999 30.5C42.2999 29.3 41.2999 28.3 40.0999 28.3C38.8999 28.3 37.8999 29.3 37.8999 30.5C37.8999 31.1 38.0999 31.6 38.4999 32C38.8999 32.5 39.4999 32.7001 40.0999 32.7001Z" fill="#4E4B66"/>
<path d="M40.5001 24H39.6001V24.9H40.5001V24Z" fill="#4E4B66"/>
<path d="M40.5001 24H39.6001V24.9H40.5001V24Z" fill="#4E4B66"/>
<circle cx="40" cy="40" r="38.5" stroke="#F56E1E" stroke-width="3"/>
</g>
<defs>
<clipPath id="clip0_4_28380">
<rect width="80" height="80" fill="white"/>
</clipPath>
</defs>
</svg>
