<svg width="80" height="80" viewBox="0 0 80 80" fill="none" xmlns="http://www.w3.org/2000/svg">
<g clip-path="url(#clip0_4_28497)">
<path d="M61.2002 58H58.1002V56.4001H56.5002V58H53.4002V51.7001H56.5002V54.8H58.1002V51.7001H61.2002V58ZM59.6002 62.7001H54.9002V59.6H59.6002V62.7001ZM53.7002 48.6H60.9002L62.5002 50.2001H52.2002L53.7002 48.6ZM60.4002 47H54.1002V42.3H60.4002V47ZM41.6002 36.1C36.4002 36.1 32.2002 31.9 32.2002 26.7C32.2002 22.2 35.4002 18.4 39.7002 17.5C40.4002 17.4 41.1002 17.3 41.9002 17.3C47.0002 17.4 51.1002 21.6 51.1002 26.7C51.0002 31.9 46.8002 36.1 41.6002 36.1ZM29.8002 40.8H23.5002V36.1H29.8002V40.8ZM36.1002 43.1V44.7001C36.1002 45.1 35.7002 45.5 35.3002 45.5H18.0002C17.6002 45.5 17.2002 45.2001 17.2002 44.7001V43.1C17.2002 42.7 17.6002 42.3 18.0002 42.3H35.3002C35.7002 42.3 36.1002 42.7 36.1002 43.1ZM20.1002 58L19.3002 56.4001H34.0002L33.2002 58H20.1002ZM31.4002 62.7001H29.8002V59.6H31.4002V62.7001ZM23.5002 62.7001H21.9002V59.6H23.5002V62.7001ZM18.8002 47H34.5002V54.8H18.8002V47ZM64.3002 49.8L62.0002 47.5V40.8H58.1002V31.8C58.1002 23 50.9002 15.8 42.0002 15.8C41.9002 15.8 41.9002 15.8 41.8002 15.8C41.7002 15.8 41.7002 15.8 41.6002 15.8C40.8002 15.8 40.1002 15.9 39.3002 16C31.7002 17.3 25.9002 23.9 25.9002 31.8V34.5H22.0002V40.8H18.1002C16.8002 40.8 15.7002 41.8 15.7002 43.1V44.7001C15.7002 45.7001 16.4002 46.6001 17.3002 46.9001V55.8L19.2002 59.5H20.5002V64.2H25.2002V59.5H28.3002V64.2H33.0002V59.5H34.3002L36.2002 55.8V46.9001C37.1002 46.6001 37.8002 45.7001 37.8002 44.7001V43.1C37.8002 41.8 36.7002 40.8 35.4002 40.8H31.5002V34.5H27.6002V31.8C27.6002 27.6 29.4002 23.9 32.2002 21.2C31.3002 22.8 30.7002 24.7 30.7002 26.7C30.7002 32.7001 35.6002 37.6 41.7002 37.6C47.8002 37.6 52.7002 32.7001 52.7002 26.7C52.7002 24.1 51.8002 21.7 50.2002 19.8C54.1002 22.4 56.6002 26.8 56.6002 31.8V40.8H52.7002V47.5L50.3002 49.8V51.7001H51.9002V59.5H53.5002V64.2H61.4002V59.5H63.0002V51.7001H64.6002V49.8H64.3002Z" fill="#4E4B66" stroke="#4E4B66" stroke-width="0.5" stroke-miterlimit="10"/>
<path d="M61.2002 58H58.1002V56.4001H56.5002V58H53.4002V51.7001H56.5002V54.8H58.1002V51.7001H61.2002V58ZM59.6002 62.7001H54.9002V59.6H59.6002V62.7001ZM53.7002 48.6H60.9002L62.5002 50.2001H52.2002L53.7002 48.6ZM60.4002 47H54.1002V42.3H60.4002V47ZM41.6002 36.1C36.4002 36.1 32.2002 31.9 32.2002 26.7C32.2002 22.2 35.4002 18.4 39.7002 17.5C40.4002 17.4 41.1002 17.3 41.9002 17.3C47.0002 17.4 51.1002 21.6 51.1002 26.7C51.0002 31.9 46.8002 36.1 41.6002 36.1ZM29.8002 40.8H23.5002V36.1H29.8002V40.8ZM36.1002 43.1V44.7001C36.1002 45.1 35.7002 45.5 35.3002 45.5H18.0002C17.6002 45.5 17.2002 45.2001 17.2002 44.7001V43.1C17.2002 42.7 17.6002 42.3 18.0002 42.3H35.3002C35.7002 42.3 36.1002 42.7 36.1002 43.1ZM20.1002 58L19.3002 56.4001H34.0002L33.2002 58H20.1002ZM31.4002 62.7001H29.8002V59.6H31.4002V62.7001ZM23.5002 62.7001H21.9002V59.6H23.5002V62.7001ZM18.8002 47H34.5002V54.8H18.8002V47ZM64.3002 49.8L62.0002 47.5V40.8H58.1002V31.8C58.1002 23 50.9002 15.8 42.0002 15.8C41.9002 15.8 41.9002 15.8 41.8002 15.8C41.7002 15.8 41.7002 15.8 41.6002 15.8C40.8002 15.8 40.1002 15.9 39.3002 16C31.7002 17.3 25.9002 23.9 25.9002 31.8V34.5H22.0002V40.8H18.1002C16.8002 40.8 15.7002 41.8 15.7002 43.1V44.7001C15.7002 45.7001 16.4002 46.6001 17.3002 46.9001V55.8L19.2002 59.5H20.5002V64.2H25.2002V59.5H28.3002V64.2H33.0002V59.5H34.3002L36.2002 55.8V46.9001C37.1002 46.6001 37.8002 45.7001 37.8002 44.7001V43.1C37.8002 41.8 36.7002 40.8 35.4002 40.8H31.5002V34.5H27.6002V31.8C27.6002 27.6 29.4002 23.9 32.2002 21.2C31.3002 22.8 30.7002 24.7 30.7002 26.7C30.7002 32.7001 35.6002 37.6 41.7002 37.6C47.8002 37.6 52.7002 32.7001 52.7002 26.7C52.7002 24.1 51.8002 21.7 50.2002 19.8C54.1002 22.4 56.6002 26.8 56.6002 31.8V40.8H52.7002V47.5L50.3002 49.8V51.7001H51.9002V59.5H53.5002V64.2H61.4002V59.5H63.0002V51.7001H64.6002V49.8H64.3002Z" fill="#4E4B66" stroke="#4E4B66" stroke-width="0.5" stroke-miterlimit="10"/>
<circle cx="40" cy="40" r="38.5" stroke="#F56E1E" stroke-width="3"/>
</g>
<defs>
<clipPath id="clip0_4_28497">
<rect width="80" height="80" fill="white"/>
</clipPath>
</defs>
</svg>
