<svg width="80" height="80" viewBox="0 0 80 80" fill="none" xmlns="http://www.w3.org/2000/svg">
<g clip-path="url(#clip0_4_28511)">
<path d="M27.1002 33.1C26.5002 33.1 25.9002 32.6 25.9002 32C25.9002 31.4 26.4002 30.9 27.1002 30.9H30.6002C31.2002 30.9 31.8002 31.4 31.8002 32C31.8002 32.6 31.3002 33.1 30.6002 33.1H27.1002ZM28.3002 28.5C27.6002 28.5 27.1002 28 27.1002 27.4C27.1002 26.8 27.6002 26.3 28.3002 26.3H30.6002C31.2002 26.3 31.8002 26.8 31.8002 27.4C31.8002 28 31.3002 28.5 30.6002 28.5H28.3002ZM27.1002 23.9C26.5002 23.9 25.9002 23.4 25.9002 22.8C25.9002 22.2 26.4002 21.6 27.1002 21.6H30.6002C31.2002 21.6 31.8002 22.1 31.8002 22.8C31.8002 23.4 31.3002 23.9 30.6002 23.9H27.1002ZM40.0002 56.1C41.3002 56.1 42.3002 55.1 42.3002 53.8C42.3002 52.5 41.2002 51.5 40.0002 51.5C38.7002 51.5 37.7002 52.5 37.7002 53.8C37.7002 55.1 38.7002 56.1 40.0002 56.1ZM38.8002 49.3V42.3C38.8002 41.7 39.3002 41.2 40.0002 41.2C40.6002 41.2 41.2002 41.7 41.2002 42.3V49.3C43.2002 49.8 44.7002 51.6 44.7002 53.8C44.7002 56.3 42.6002 58.4 40.0002 58.4C37.4002 58.4 35.3002 56.3 35.3002 53.8C35.3002 51.7 36.8002 49.9 38.8002 49.3ZM36.5002 35.4C36.5002 36 36.0002 36.5 35.3002 36.5C34.6002 36.5 34.1002 36 34.1002 35.4V22.8C34.1002 19.6 36.7002 17.1 40.0002 17.1C43.2002 17.1 45.9002 19.7 45.9002 22.8V26.2C45.9002 26.8 45.4002 27.3 44.7002 27.3C44.0002 27.3 43.5002 26.8 43.5002 26.2V22.8C43.5002 20.9 41.9002 19.3 40.0002 19.3C38.1002 19.3 36.5002 20.8 36.5002 22.8V35.4ZM49.4002 53.8C49.4002 58.9 45.2002 63 40.0002 63C34.8002 63 30.6002 58.9 30.6002 53.8C30.6002 50.8 32.1002 48 34.6002 46.3C35.1002 45.9 35.9002 46.1 36.2002 46.6C36.6002 47.1 36.4002 47.8 35.9002 48.2C34.0002 49.5 32.9002 51.6 32.9002 53.9C32.9002 57.7 36.1002 60.8 39.9002 60.8C43.8002 60.8 46.9002 57.7 46.9002 53.9C46.9002 51.6 45.8002 49.5 43.9002 48.2C43.6002 48 43.4002 47.6 43.4002 47.3V37.8C43.4002 37.2 43.9002 36.6 44.6002 36.6C45.2002 36.6 45.8002 37.1 45.8002 37.8V46.7C48.1002 48.3 49.4002 51 49.4002 53.8ZM30.3002 47.7C30.0002 47.9 29.7002 48 29.4002 48H22.4002C21.8002 48 21.2002 47.5 21.2002 46.9C21.2002 46.3 21.7002 45.8 22.4002 45.8H29.0002L49.8002 25.4C50.0002 25.2 50.3002 25.1 50.6002 25.1H57.6002C58.2002 25.1 58.8002 25.6 58.8002 26.2C58.8002 26.8 58.3002 27.3 57.6002 27.3H51.0002L30.3002 47.7Z" fill="#4E4B66"/>
<circle cx="40" cy="40" r="38.5" stroke="#F56E1E" stroke-width="3"/>
</g>
<defs>
<clipPath id="clip0_4_28511">
<rect width="80" height="80" fill="white"/>
</clipPath>
</defs>
</svg>
