<svg width="16" height="16" viewBox="0 0 16 16" fill="none" xmlns="http://www.w3.org/2000/svg">
<path d="M12.9308 3H3.06917C1.9264 3 1 3.82829 1 4.85004V13.15C1 14.1717 1.9264 15 3.06917 15H12.9308C14.0736 15 15 14.1717 15 13.15V4.85004C15 3.82829 14.0736 3 12.9308 3Z" stroke="#6E7191" stroke-width="2"/>
<path d="M4.5 3C4.5 3.27614 4.27614 3.5 4 3.5C3.72386 3.5 3.5 3.27614 3.5 3V1C3.5 0.723858 3.72386 0.5 4 0.5C4.27614 0.5 4.5 0.723858 4.5 1V3Z" stroke="#6E7191" stroke-linecap="round" stroke-linejoin="round"/>
<path d="M12.5 3C12.5 3.27614 12.2761 3.5 12 3.5C11.7239 3.5 11.5 3.27614 11.5 3V1C11.5 0.723858 11.7239 0.5 12 0.5C12.2761 0.5 12.5 0.723858 12.5 1V3Z" stroke="#6E7191" stroke-linecap="round" stroke-linejoin="round"/>
<path d="M1 5.5C0.723858 5.5 0.5 5.72386 0.5 6C0.5 6.27614 0.723858 6.5 1 6.5H15C15.2761 6.5 15.5 6.27614 15.5 6C15.5 5.72386 15.2761 5.5 15 5.5H1Z" stroke="#6E7191" stroke-linecap="round" stroke-linejoin="round"/>
<path d="M4.62305 8.60718C4.3469 8.60718 4.12305 8.83104 4.12305 9.10718C4.12305 9.38332 4.3469 9.60718 4.62305 9.60718H5.97068C6.24683 9.60718 6.47068 9.38332 6.47068 9.10718C6.47068 8.83104 6.24683 8.60718 5.97068 8.60718H4.62305Z" stroke="#6E7191" stroke-linecap="round" stroke-linejoin="round"/>
<path d="M9.83984 8.60718C9.5637 8.60718 9.33984 8.83104 9.33984 9.10718C9.33984 9.38332 9.5637 9.60718 9.83984 9.60718H11.1875C11.4636 9.60718 11.6875 9.38332 11.6875 9.10718C11.6875 8.83104 11.4636 8.60718 11.1875 8.60718H9.83984Z" stroke="#6E7191" stroke-linecap="round" stroke-linejoin="round"/>
<path d="M4.62305 11.5597C4.3469 11.5597 4.12305 11.7835 4.12305 12.0597C4.12305 12.3358 4.3469 12.5597 4.62305 12.5597H5.97068C6.24683 12.5597 6.47068 12.3358 6.47068 12.0597C6.47068 11.7835 6.24683 11.5597 5.97068 11.5597H4.62305Z" stroke="#6E7191" stroke-linecap="round" stroke-linejoin="round"/>
<path d="M9.83984 11.5597C9.5637 11.5597 9.33984 11.7835 9.33984 12.0597C9.33984 12.3358 9.5637 12.5597 9.83984 12.5597H11.1875C11.4636 12.5597 11.6875 12.3358 11.6875 12.0597C11.6875 11.7835 11.4636 11.5597 11.1875 11.5597H9.83984Z" stroke="#6E7191" stroke-linecap="round" stroke-linejoin="round"/>
</svg>
