<svg width="16" height="16" viewBox="0 0 16 16" fill="none" xmlns="http://www.w3.org/2000/svg">
<path fill-rule="evenodd" clip-rule="evenodd" d="M5.48053 4.22415H6.31988C6.33117 4.22337 6.3425 4.2251 6.35309 4.22922C6.36369 4.23334 6.37331 4.23977 6.38132 4.24806C6.38932 4.25635 6.39551 4.26632 6.39949 4.2773C6.40347 4.28827 6.40514 4.30001 6.40438 4.31171V5.1803C6.40512 5.19204 6.40345 5.20382 6.39948 5.21485C6.39551 5.22587 6.38933 5.2359 6.38135 5.24428C6.37336 5.25265 6.36376 5.25917 6.35317 5.26342C6.34258 5.26766 6.33122 5.26954 6.31988 5.26891H5.48053C5.46916 5.26962 5.45779 5.26781 5.44716 5.26359C5.43653 5.25938 5.42689 5.25285 5.41889 5.24446C5.41089 5.23607 5.4047 5.22601 5.40076 5.21494C5.39682 5.20388 5.39522 5.19206 5.39604 5.1803V4.31171C5.3952 4.29998 5.3968 4.28822 5.40074 4.2772C5.40469 4.26618 5.4109 4.25617 5.41892 4.24786C5.42694 4.23955 5.43659 4.23313 5.44722 4.22904C5.45786 4.22495 5.46922 4.22328 5.48053 4.22415ZM5.28234 3.71159C5.23236 3.71152 5.18285 3.72167 5.13666 3.74145C5.09046 3.76124 5.04849 3.79028 5.01315 3.8269C4.9778 3.86353 4.94977 3.90701 4.93067 3.95487C4.91158 4.00274 4.90179 4.05404 4.90186 4.10583V5.38671C4.90179 5.43847 4.91159 5.48974 4.93069 5.53757C4.94979 5.58541 4.97782 5.62886 5.01318 5.66544C5.04853 5.70202 5.09051 5.731 5.1367 5.75073C5.1829 5.77046 5.23238 5.78055 5.28234 5.78041H6.51806C6.56805 5.78062 6.61758 5.77059 6.6638 5.75088C6.71002 5.73118 6.75202 5.70219 6.78739 5.66559C6.82275 5.629 6.85079 5.58552 6.86987 5.53765C6.88895 5.48979 6.8987 5.43849 6.89857 5.38671V4.1053C6.8987 4.05349 6.88895 4.00216 6.86987 3.95427C6.8508 3.90637 6.82278 3.86285 6.78742 3.82622C6.75206 3.78958 6.71007 3.76055 6.66385 3.74078C6.61762 3.72102 6.56807 3.71092 6.51806 3.71106L5.28234 3.71159Z" fill="#6E7191"/>
<path fill-rule="evenodd" clip-rule="evenodd" d="M8.56599 4.22411H9.40431C9.41567 4.22326 9.42706 4.22493 9.43774 4.22901C9.44842 4.23309 9.45814 4.2395 9.46623 4.24779C9.47433 4.25608 9.48064 4.26606 9.48471 4.27708C9.48878 4.2881 9.49052 4.29989 9.48983 4.31166V5.03434C9.49052 5.04611 9.48878 5.0579 9.48471 5.06892C9.48064 5.07994 9.47433 5.08992 9.46623 5.09821C9.45814 5.1065 9.44842 5.1129 9.43774 5.11699C9.42706 5.12107 9.41567 5.12274 9.40431 5.12189H8.56599C8.55468 5.12276 8.54332 5.12109 8.53269 5.117C8.52205 5.11291 8.51239 5.10649 8.50437 5.09818C8.49635 5.08987 8.49016 5.07986 8.48621 5.06885C8.48226 5.05783 8.48065 5.04606 8.48149 5.03434V4.31166C8.48065 4.29994 8.48226 4.28817 8.48621 4.27715C8.49016 4.26613 8.49635 4.25613 8.50437 4.24782C8.51239 4.23951 8.52205 4.23309 8.53269 4.229C8.54332 4.2249 8.55468 4.22324 8.56599 4.22411ZM8.36779 3.71155C8.31781 3.71148 8.2683 3.72163 8.22211 3.74142C8.17591 3.7612 8.13394 3.79024 8.09859 3.82686C8.06325 3.86348 8.03522 3.90697 8.01612 3.95484C7.99703 4.0027 7.98724 4.05399 7.98731 4.10578V5.38666C7.98731 5.73155 8.26026 5.75066 8.47074 5.64878C8.79047 5.50333 9.15126 5.48761 9.48164 5.60474C9.83141 5.74906 9.98453 5.75172 9.98453 5.4636V4.10578C9.9846 4.05395 9.97478 4.00261 9.95565 3.95472C9.93652 3.90682 9.90846 3.8633 9.87306 3.82667C9.83766 3.79004 9.79563 3.76102 9.74937 3.74126C9.70312 3.72151 9.65356 3.71141 9.60353 3.71155H8.36779Z" fill="#6E7191"/>
<path fill-rule="evenodd" clip-rule="evenodd" d="M5.48159 7.42001H6.31838C6.32974 7.41929 6.34111 7.4211 6.35174 7.42532C6.36238 7.42953 6.37201 7.43606 6.38002 7.44445C6.38802 7.45284 6.3942 7.4629 6.39814 7.47397C6.40209 7.48503 6.4037 7.49685 6.40288 7.50861V8.37668C6.4037 8.38844 6.40209 8.40026 6.39814 8.41132C6.3942 8.42239 6.38802 8.43245 6.38002 8.44084C6.37201 8.44923 6.36238 8.45576 6.35174 8.45997C6.34111 8.46419 6.32974 8.46601 6.31838 8.46529H5.48056C5.46915 8.46599 5.45774 8.46417 5.44706 8.45996C5.43638 8.45575 5.42668 8.44925 5.41861 8.44088C5.41053 8.43251 5.40424 8.42246 5.40018 8.4114C5.39612 8.40033 5.39437 8.3885 5.39504 8.37668V7.50861C5.39435 7.4967 5.39614 7.48477 5.40026 7.47363C5.40438 7.46248 5.41074 7.45238 5.41893 7.444C5.42713 7.43561 5.43696 7.42912 5.44777 7.42499C5.45857 7.42085 5.4701 7.41915 5.48159 7.42001ZM5.28186 6.90744C5.23187 6.90737 5.18236 6.91752 5.13617 6.93731C5.08997 6.9571 5.048 6.98614 5.01266 7.02276C4.97731 7.05938 4.94929 7.10287 4.93019 7.15073C4.91109 7.19859 4.9013 7.24989 4.90137 7.30168V8.58202C4.90123 8.63388 4.91097 8.68526 4.93003 8.73322C4.94909 8.78117 4.97709 8.82476 5.01244 8.86148C5.04779 8.8982 5.08978 8.92733 5.13601 8.94721C5.18224 8.96709 5.2318 8.97732 5.28186 8.97732H6.51759C6.56768 8.97746 6.6173 8.96733 6.66359 8.9475C6.70988 8.92767 6.75193 8.89854 6.78731 8.86179C6.82268 8.82504 6.85067 8.7814 6.86968 8.73338C6.8887 8.68536 6.89835 8.63392 6.89808 8.58202V7.29902C6.89822 7.24721 6.88848 7.19589 6.8694 7.14799C6.85033 7.1001 6.82229 7.05659 6.78693 7.01995C6.75157 6.98331 6.70958 6.95427 6.66336 6.93451C6.61713 6.91475 6.5676 6.90465 6.51759 6.90479L5.28186 6.90744Z" fill="#6E7191"/>
<path fill-rule="evenodd" clip-rule="evenodd" d="M7.98697 8.22807V8.66157C7.9867 8.70297 7.99434 8.74402 8.00946 8.78235C8.02458 8.82067 8.04689 8.85551 8.07507 8.88486C8.10326 8.91422 8.13677 8.9375 8.17369 8.95336C8.2106 8.96922 8.25017 8.97735 8.29013 8.97728H8.67678C8.80737 8.97728 8.87497 8.89876 8.76077 8.75921L8.2041 8.0795C7.97314 7.79828 7.98697 8.09489 7.98697 8.22807Z" fill="#6E7191"/>
<path fill-rule="evenodd" clip-rule="evenodd" d="M7.16456 8.85842V8.48328C7.16436 8.46768 7.16714 8.45219 7.17277 8.43771C7.17839 8.42324 7.18673 8.41006 7.1973 8.39895C7.20788 8.38784 7.22048 8.37903 7.23437 8.37301C7.24827 8.36699 7.26318 8.36389 7.27824 8.36389H7.606C7.62106 8.36389 7.63596 8.36699 7.64985 8.37301C7.66375 8.37903 7.67636 8.38784 7.68694 8.39895C7.69752 8.41006 7.70585 8.42324 7.71148 8.43771C7.7171 8.45219 7.71988 8.46768 7.71968 8.48328V8.85842C7.71975 8.87388 7.71686 8.8892 7.71116 8.9035C7.70547 8.91779 7.69708 8.93077 7.6865 8.94168C7.67592 8.95259 7.66336 8.96122 7.64954 8.96705C7.63572 8.97289 7.62092 8.97581 7.606 8.97567H7.27824C7.2633 8.97588 7.24848 8.97301 7.23462 8.9672C7.22077 8.96139 7.20818 8.95277 7.19758 8.94184C7.18699 8.93092 7.17861 8.9179 7.17294 8.90358C7.16727 8.88925 7.16442 8.8739 7.16456 8.85842Z" fill="#6E7191"/>
<path fill-rule="evenodd" clip-rule="evenodd" d="M5.85587 6.05579C5.82576 6.05593 5.79692 6.06839 5.77563 6.09045C5.75434 6.11251 5.74232 6.14239 5.74219 6.17358V6.51477C5.74246 6.54587 5.75454 6.57561 5.77582 6.59756C5.7971 6.6195 5.82585 6.63189 5.85587 6.63203H7.16482V7.8991C7.16469 7.91461 7.16753 7.93 7.1732 7.94435C7.17886 7.95871 7.18725 7.97175 7.19783 7.98271C7.20841 7.99368 7.221 8.00236 7.23485 8.00823C7.24871 8.0141 7.26355 8.01704 7.27852 8.0169H7.60626C7.62123 8.01704 7.63609 8.0141 7.64994 8.00823C7.6638 8.00236 7.67638 7.99368 7.68697 7.98271C7.69755 7.97175 7.70592 7.95871 7.71158 7.94435C7.71725 7.93 7.72009 7.91461 7.71996 7.8991V6.17358C7.71996 6.05314 7.62573 6.05579 7.57196 6.05579H5.85587Z" fill="#6E7191"/>
<path d="M4.51819 1.22357L10.3788 1.231C10.4332 1.23034 10.4872 1.24105 10.5375 1.26248C10.5878 1.28391 10.6335 1.31563 10.6717 1.35575C10.71 1.39586 10.74 1.44355 10.7601 1.49596C10.7801 1.54836 10.7898 1.60442 10.7885 1.66078C10.7885 3.65744 10.7808 4.59555 10.7808 6.26748C10.7871 6.36762 10.8139 6.46522 10.8595 6.55378C10.9051 6.64234 10.9683 6.71983 11.045 6.7811L12.1522 7.96382C12.1813 8.00245 12.1944 8.05145 12.1885 8.10006C12.1827 8.14867 12.1585 8.1929 12.1212 8.22301C12.084 8.25313 12.0367 8.26667 11.9897 8.26064C11.9428 8.25462 11.9001 8.22954 11.8711 8.19091C11.2849 7.55836 10.6485 6.97796 9.96858 6.45584C9.1661 5.80904 8.63248 5.92046 8.33956 6.25156C8.17266 6.46642 8.09091 6.73902 8.11088 7.01404C8.13085 7.28906 8.25106 7.54591 8.4471 7.73247L9.46825 8.9762C9.74675 9.25001 9.93823 9.60515 10.0172 9.99443C10.0215 10.3064 9.96828 10.6163 9.86052 10.9076C9.67924 11.4944 9.34841 12.0776 9.58143 12.9823C9.68385 13.2258 9.3858 13.36 9.32178 13.1027C9.2718 12.9493 9.23345 12.7921 9.20707 12.6326C9.14418 12.3215 9.1572 11.999 9.24497 11.6945C9.32947 11.4536 9.18863 11.27 8.91209 11.27L4.50795 11.2647C4.21195 11.2647 4.09826 11.0875 4.09826 10.7564L4.10543 1.65389C4.10439 1.59738 4.11435 1.54123 4.13471 1.4888C4.15507 1.43637 4.18542 1.38872 4.22394 1.34871C4.26246 1.3087 4.30838 1.27714 4.35893 1.25591C4.40949 1.23468 4.46365 1.22422 4.51819 1.22516V1.22357ZM4.51819 0C4.22037 0.00154293 3.93524 0.125208 3.72517 0.343957C3.5151 0.562706 3.39717 0.858739 3.39718 1.16732V2.8122C3.29378 2.83342 3.19535 2.87522 3.10733 2.93529C2.9836 3.02025 2.88062 3.13383 2.8065 3.26707C2.73238 3.40031 2.68916 3.54957 2.68023 3.70307C2.66739 3.83908 2.69152 3.9761 2.74989 4.09865C2.80826 4.2212 2.89854 4.32439 3.01054 4.39657L3.39615 4.62898V4.86085L3.17646 4.72979C3.0601 4.66593 2.92901 4.6365 2.79757 4.64474C2.66613 4.65297 2.53942 4.69856 2.43134 4.77648C2.30426 4.85857 2.1987 4.97189 2.12402 5.10637C2.04934 5.24086 2.00784 5.39237 2.00321 5.54745C1.99065 5.6836 2.01508 5.82068 2.07371 5.94322C2.13235 6.06576 2.22287 6.16888 2.33506 6.24095L3.3936 6.87767V7.10052C3.31502 7.11923 3.24017 7.15191 3.17236 7.1971C3.06537 7.27289 2.97614 7.37258 2.91127 7.48884C2.84639 7.60509 2.80752 7.73495 2.7975 7.86884C2.78454 7.98357 2.80302 8.09977 2.85084 8.20412C2.89866 8.30847 2.97389 8.39676 3.06789 8.45887L3.39206 8.65254L3.38847 11.9741C3.38847 12.2826 3.50633 12.5786 3.71628 12.7973C3.92624 13.016 4.21123 13.1398 4.50897 13.1414L7.62772 13.1462L8.14649 13.9755C8.2103 14.0972 8.31604 14.1893 8.44259 14.2337C8.56913 14.2781 8.70717 14.2713 8.82914 14.2148L12.8584 12.6453C13.4479 12.4156 13.2881 11.9264 13.2999 11.5008L13.4054 8.1161C13.4219 7.67152 13.2958 7.23379 13.0469 6.8713L11.4931 4.56159L11.4983 1.17953C11.4973 0.871771 11.3791 0.576849 11.1694 0.358932C10.9596 0.141014 10.6753 0.0177345 10.3783 0.0159174L4.51819 0Z" fill="#6E7191"/>
<path d="M13.841 13.0284C14.055 13.6232 14.0392 13.9655 13.8743 14.2276C13.586 14.5619 13.2097 14.8016 12.7917 14.9173L10.6234 15.7631C10.2356 15.9618 9.80002 16.038 9.37077 15.9823C9.07938 15.8974 8.8556 15.6475 8.63283 15.0558C8.57292 14.8967 8.5176 14.7237 8.83102 14.6016L13.3376 12.8469C13.7104 12.701 13.7872 12.8782 13.8415 13.0273L13.841 13.0284Z" fill="#6E7191"/>
<path fill-rule="evenodd" clip-rule="evenodd" d="M7.16504 4.20765V3.83146C7.16491 3.81592 7.16775 3.80052 7.1734 3.78613C7.17906 3.77175 7.18743 3.75868 7.198 3.74767C7.20858 3.73666 7.22117 3.72794 7.23503 3.72201C7.24889 3.71608 7.26373 3.71307 7.27872 3.71314H7.60648C7.62147 3.71307 7.63632 3.71608 7.65018 3.72201C7.66404 3.72794 7.67663 3.73666 7.6872 3.74767C7.69778 3.75868 7.70614 3.77175 7.7118 3.78613C7.71746 3.80052 7.7203 3.81592 7.72016 3.83146V4.20765C7.72016 4.23889 7.7082 4.26886 7.68687 4.29095C7.66555 4.31304 7.63663 4.32545 7.60648 4.32545H7.27872C7.26379 4.32545 7.24901 4.3224 7.23522 4.31648C7.22142 4.31056 7.20889 4.30189 7.19833 4.29095C7.18778 4.28001 7.1794 4.26702 7.17369 4.25273C7.16797 4.23844 7.16504 4.22312 7.16504 4.20765Z" fill="#6E7191"/>
<path fill-rule="evenodd" clip-rule="evenodd" d="M7.16504 5.37766V5.00252C7.16491 4.98704 7.16775 4.97169 7.17342 4.95736C7.17909 4.94304 7.18748 4.93002 7.19807 4.9191C7.20866 4.90818 7.22125 4.89955 7.23511 4.89374C7.24896 4.88793 7.26378 4.88505 7.27872 4.88526H7.60648C7.62141 4.88512 7.6362 4.88806 7.65002 4.8939C7.66384 4.89973 7.67641 4.90835 7.68698 4.91926C7.69756 4.93017 7.70595 4.94315 7.71165 4.95744C7.71734 4.97174 7.72023 4.98706 7.72016 5.00252V5.37766C7.7203 5.39322 7.71746 5.40865 7.7118 5.42307C7.70615 5.43748 7.6978 5.45059 7.68723 5.46164C7.67666 5.4727 7.66409 5.48146 7.65023 5.48745C7.63637 5.49343 7.6215 5.49652 7.60648 5.49652H7.27872C7.26371 5.49652 7.24884 5.49343 7.23498 5.48745C7.22112 5.48146 7.20854 5.4727 7.19797 5.46164C7.1874 5.45059 7.17906 5.43748 7.17341 5.42307C7.16775 5.40865 7.16491 5.39322 7.16504 5.37766Z" fill="#6E7191"/>
<path fill-rule="evenodd" clip-rule="evenodd" d="M4.90186 6.53222V6.15549C4.90186 6.12429 4.91375 6.09436 4.93494 6.0722C4.95614 6.05004 4.98493 6.03745 5.01504 6.03717H5.34433C5.37448 6.03745 5.40332 6.05002 5.42459 6.07216C5.44587 6.09431 5.45787 6.12424 5.45801 6.15549V6.53222C5.45801 6.56346 5.44604 6.59343 5.42472 6.61552C5.4034 6.63761 5.37448 6.65002 5.34433 6.65002H5.01504C5.00013 6.65002 4.98537 6.64696 4.97161 6.64104C4.95784 6.63511 4.94535 6.62643 4.93483 6.61548C4.92432 6.60454 4.91598 6.59155 4.91033 6.57726C4.90467 6.56297 4.90179 6.54767 4.90186 6.53222Z" fill="#6E7191"/>
</svg>
